<svg width="40" height="40" viewBox="0 0 40 40" fill="none" xmlns="http://www.w3.org/2000/svg">
<path d="M20 2.29175C10.2354 2.29175 2.29169 10.2355 2.29169 20.0001C2.29169 29.7647 10.2354 37.7084 20 37.7084C29.7646 37.7084 37.7084 29.7647 37.7084 20.0001C37.7084 10.2355 29.7646 2.29175 20 2.29175ZM20 35.6251C11.3842 35.6251 4.37502 28.6159 4.37502 20.0001C4.37502 11.3842 11.3842 4.37508 20 4.37508C28.6159 4.37508 35.625 11.3842 35.625 20.0001C35.625 28.6159 28.6159 35.6251 20 35.6251Z" fill="#3D362D"/>
<path d="M28.0809 14.3002L18.89 23.4906L14.1746 18.7756C14.0781 18.6782 13.9632 18.6008 13.8367 18.5478C13.7101 18.4949 13.5743 18.4675 13.4372 18.4672C13.3 18.4669 13.1641 18.4936 13.0373 18.546C12.9105 18.5983 12.7953 18.6752 12.6983 18.7722C12.6013 18.8691 12.5244 18.9843 12.472 19.1111C12.4196 19.2379 12.3928 19.3738 12.3931 19.511C12.3933 19.6481 12.4207 19.7839 12.4736 19.9105C12.5265 20.0371 12.6039 20.1519 12.7013 20.2485L18.1534 25.7002C18.3567 25.9039 18.6234 26.0056 18.89 26.0056C19.1567 26.0056 19.4234 25.9039 19.6267 25.7002L29.5538 15.7731C29.6533 15.677 29.7326 15.5621 29.7872 15.435C29.8418 15.3079 29.8706 15.1712 29.8718 15.0329C29.873 14.8946 29.8466 14.7574 29.7942 14.6294C29.7419 14.5014 29.6645 14.3851 29.5667 14.2873C29.4689 14.1895 29.3526 14.1121 29.2246 14.0597C29.0966 14.0074 28.9594 13.981 28.8211 13.9822C28.6828 13.9834 28.5461 14.0122 28.419 14.0667C28.2919 14.1213 28.177 14.2007 28.0809 14.3002Z" fill="#3D362D"/>
</svg>
